<svg id="Layer_1" data-name="Layer 1" xmlns="http://www.w3.org/2000/svg" xmlns:xlink="http://www.w3.org/1999/xlink" viewBox="0 0 720 607.2"><defs><style>.cls-1{fill:url(#linear-gradient);}.cls-2,.cls-8,.cls-9{fill:#4c7031;}.cls-2{clip-rule:evenodd;}.cls-3{fill:#4a7001;}.cls-4{fill:url(#linear-gradient-2);}.cls-5{fill:url(#linear-gradient-3);}.cls-6{fill:url(#linear-gradient-4);}.cls-7{fill:#fff;}.cls-9{fill-rule:evenodd;}.cls-10{clip-path:url(#clip-path);}.cls-11{mask:url(#mask);}</style><linearGradient id="linear-gradient" x1="583.72" y1="975.01" x2="546.96" y2="868" gradientTransform="translate(30.8 -619.4)" gradientUnits="userSpaceOnUse"><stop offset="0" stop-color="#fff"/><stop offset="1"/></linearGradient><linearGradient id="linear-gradient-2" x1="193.53" y1="426.09" x2="194.21" y2="426.09" gradientUnits="userSpaceOnUse"><stop offset="0" stop-color="#4a7001"/><stop offset="0.28" stop-color="#4d7401"/><stop offset="0.55" stop-color="#568001"/><stop offset="0.82" stop-color="#659402"/><stop offset="1" stop-color="#72a502"/></linearGradient><linearGradient id="linear-gradient-3" x1="193.53" y1="426.12" x2="273.13" y2="426.12" xlink:href="#linear-gradient-2"/><linearGradient id="linear-gradient-4" x1="272.34" y1="426.12" x2="273.13" y2="426.12" xlink:href="#linear-gradient-2"/><clipPath id="clip-path"><path class="cls-2" d="M545.3,238v84h42a41.2,41.2,0,0,0,29.6-12.3l2.4-2.5c15-17.7,15.5-59.2-2.1-73.2,14.7,19.3,10.6,51.3-8.7,66.4-14.8,11.5-39.1,10.2-54.4,1.2,26.8-4.2,50.3-15.9,56.4-38.7-10.3,15.9-30.7,25.8-49.2,26.6-2.8-32.7,29.1-33.4,47-45.8a41.9,41.9,0,0,0-21.1-5.7Z"/></clipPath><mask id="mask" x="545.33" y="233.98" width="85.13" height="88.07" maskUnits="userSpaceOnUse"><rect class="cls-1" x="545.3" y="234" width="85.1" height="88.07"/></mask></defs><path class="cls-3" d="M194.2,425.9l-.4.4-.3-.4Z"/><path class="cls-3" d="M273.1,425.9l-.2.4-.6-.4Z"/><path class="cls-4" d="M193.5,425.9l.3.4.4-.4Z"/><path class="cls-5" d="M272.3,425.9l.6.4.2-.4Zm-78.8,0,.3.4.4-.4Z"/><path class="cls-6" d="M272.3,425.9l.6.4.2-.4Z"/><path d="M236.5,343.1c-.7-2.6-1.9-5.2-5.8-5.2a4,4,0,0,0-4.4,4.3c0,2.8,1.8,4.2,5.3,5.9,5,2.5,7.2,4.3,7.2,8.1s-3.8,7.4-9.2,7.4a16.9,16.9,0,0,1-6.4-1.3c-.3-1.1-.8-3.8-1.1-6l1.3-.3c.8,2.7,2.6,6.2,7,6.2a4.5,4.5,0,0,0,4.9-4.6c0-3.1-1.8-4.4-5.4-6.3s-6.9-4.2-6.9-7.9,3.1-6.9,8.6-6.9a32.5,32.5,0,0,1,5.5.7c.2,1.5.4,3.1.7,5.7Z"/><path d="M252.3,337h11.2v1.2c-3.2.2-3.8.5-3.8,4.1v6.9a6.6,6.6,0,0,0,3-1.9c2.3-2.1,5.1-4.8,7.1-6.9s1.1-1.9-.7-2.1h-1.2V337h10.2v1.2c-3.1.3-4.2.5-7,3.3-1.3,1.1-4.6,4.2-7.2,6.7,3.1,3.6,7.8,8.7,10,10.9s2.7,2.5,5.3,2.8V363h-6.7c-3.3-3.4-6.7-7.3-10.5-11.6a2.3,2.3,0,0,0-2.3-1.1v7.6c0,3.5.4,3.7,3.8,4V363H252.3v-1.1c3.5-.3,3.8-.5,3.8-4V342.3c0-3.6-.3-3.9-3.8-4.1Z"/><path d="M289.4,363v-1.1c3.5-.3,3.8-.5,3.8-3.9V342.1c0-3.4-.3-3.6-3.8-3.9V337h11.3v1.2c-3.5.3-3.8.5-3.8,3.9V358c0,3.4.3,3.6,3.8,3.9V363Z"/><path d="M343.1,338.2c-2.7.2-3.6.6-3.7,2.5s-.1,2.9-.1,6.7v16h-1.6l-17.9-20.9v10c0,3.6.1,5.4.2,6.5s1.1,2.7,4.1,2.9V363H313.9v-1.1c2.6-.2,3.7-.8,3.8-2.7s.2-3.1.2-6.8V342.2a3.5,3.5,0,0,0-.8-2.6c-.8-1-1.7-1.2-3.7-1.4V337h6.2l17.8,20.2v-9.8c0-3.8-.1-5.5-.2-6.7s-1.1-2.3-4.4-2.5V337h10.3Z"/><path d="M390.7,356.6a57.1,57.1,0,0,1-2.3,6.1,44.9,44.9,0,0,1-7.7.9c-10,0-15.1-6.3-15.1-13.3s6.5-13.8,15.9-13.8a45.2,45.2,0,0,1,7.9.9c.2,1.8.5,4.2.8,6.2l-1.3.3c-.8-2.7-1.8-4.3-4-5.2a11.6,11.6,0,0,0-4.4-.7c-6.9,0-10.5,4.8-10.5,11.4s4.2,12.7,11,12.7c4.2,0,6.3-1.9,8.5-5.9Z"/><path d="M418.3,363v-1.1c2.7-.3,3-.7,2.4-2.2s-1.3-3.6-2.2-6.1h-9.1c-.6,1.8-1.3,3.4-1.9,5s-.3,2.9,3.1,3.3V363H401v-1.1c2.6-.3,3.3-.6,4.7-4.2l8.7-21,1.4-.2,8.1,21.3c1.4,3.5,1.7,3.8,4.7,4.1V363Zm-4.2-21.3c-1.4,3.5-2.8,7.1-4,10.3h7.8Z"/><path d="M464.3,363.4h-1.6c-3.1-.2-4.7-1-6.5-3.5a68.8,68.8,0,0,1-4.4-6.6c-.9-1.2-1.4-1.5-3.5-1.5h-1.5V358c0,3.4.4,3.6,3.8,3.9V363H439.4v-1.1c3.5-.3,3.8-.5,3.8-3.9V342c0-3.4-.5-3.5-3.8-3.8V337h10.7c3.1,0,5.1.4,6.7,1.4a5.8,5.8,0,0,1,2.8,5.3c0,3.4-2.3,5.6-5.4,6.9l3.9,5.7a30,30,0,0,0,3.3,4.1,5.4,5.4,0,0,0,3,1.8Zm-15.5-13a7,7,0,0,0,4.6-1.2,5.7,5.7,0,0,0,2.3-4.9c0-4.3-3-5.9-6.2-5.9a4.4,4.4,0,0,0-2.2.4c-.4.3-.5.7-.5,1.8v9.8Z"/><path d="M496.6,356.7c-.3,1-1.4,5.1-1.8,6.3H474.4v-1.1c3.9-.3,4.2-.6,4.2-3.9V342.2c0-3.6-.4-3.8-3.6-4V337h18.9c0,1,.2,4,.4,6.1l-1.3.2a20.2,20.2,0,0,0-1.2-3.1c-.7-1.3-1.7-1.6-4.2-1.6h-4c-1.3,0-1.3.2-1.3,1.3v8.9h4.6c3.1,0,3.4-.6,3.9-3.4h1.3v8.3h-1.3c-.6-2.9-.9-3.3-3.9-3.3h-4.6v8c0,2.8.9,3,3,3h3.9c2.5,0,2.9-.3,3.9-1.4a15.7,15.7,0,0,0,2.2-3.6Z"/><path class="cls-7" d="M270.7,239.9c-.4.8-.8,1.6-1.3,2.4l-1.4,2.2-1.7,2.1a15.7,15.7,0,0,1-1.8,1.9h0c2-2.9,4.1-5.8,6.2-8.6Z"/><path class="cls-8" d="M194.6,321.4H158a17.1,17.1,0,0,0,6.4-13.8V257.8c0-1-.6.2-.6.2l-25.3,63.4h-3.6l-30.3-63.7v36.4c0,14.9,12.8,27.3,12.8,27.3H87.3s13.9-12.7,13.9-27.3V253.6c0-6.3-13.1-15.9-13.1-15.9H122l25.5,52.4,21.1-52.4h26a17.2,17.2,0,0,0-6.4,13.7v56.2C188.2,317.1,194.6,321.4,194.6,321.4Z"/><path class="cls-8" d="M244.6,237.7a22.9,22.9,0,0,1,4.1,4.7,21.3,21.3,0,0,1,3.8,14.7l.7-.2,4.4-1.9,1.7-.7,3.1-1.6V254c6-8.6,11.1-16.3,11.1-16.3Zm-1.8,42a9.8,9.8,0,0,1-3.7-4.1c-2.7-5.1-8.9-16.7-11.3-21.4-3.5-6.6,1-16.5,1-16.5H193.9s8.3,12.1,10.7,16.5l14.8,28.1v25.3a17,17,0,0,1-6.5,13.8h36.6s-6.4-4.3-6.4-10.9l-.2-24.2v-2.7"/><path class="cls-8" d="M362.9,321.4H326.3a17.1,17.1,0,0,0,6.4-13.8V281.8H302.9v25.8c0,9.5,6.4,13.8,6.4,13.8H272.7a17,17,0,0,0,6.5-13.8V251.4a17.4,17.4,0,0,0-6.5-13.7h36.6a17.2,17.2,0,0,0-6.4,13.7v26h29.8v-26a17.5,17.5,0,0,0-6.4-13.7h36.6a17.2,17.2,0,0,0-6.5,13.7v56.2A16.8,16.8,0,0,0,362.9,321.4Z"/><path class="cls-8" d="M443,289.9v31.5H368.1a17,17,0,0,0,6.5-13.8V251.4a17.4,17.4,0,0,0-6.5-13.7h73.4v31.6s-15.9-27.2-30.7-27.2h-6.9c-3.4,0-5.6,3.4-5.6,9.3v26h7.1c15.5,0,20.7-15.4,20.7-15.4v35.1s-5.5-15.3-20.4-15.3h-7.4v25.8c0,5.3,1.9,9.4,6.9,9.4h7.5C426.6,317,443,289.9,443,289.9Z"/><path class="cls-8" d="M500.3,307.7l-14.4-26s20-.9,20-22.1c0-16.4-12.6-18.6-16.6-18.6s-8.3.4-8.3,10.4v56.2c0,9.5,6.4,13.8,6.4,13.8H450.8a17.1,17.1,0,0,0,6.4-13.8V251.4a17.5,17.5,0,0,0-6.4-13.7H501c8.1,0,28.7,3.8,28.7,21.9,0,14.8-14.9,19.6-20.6,20.9,3.5,6.3,11.9,21.9,14.8,27.2s16.3,13.7,16.3,13.7H499.3S506.4,318.5,500.3,307.7Z"/><path class="cls-8" d="M250.4,261a13.8,13.8,0,0,1-2.3,4.7c-2.6,3.3-5.2,4.2-6.1,4.4h-.3a34.6,34.6,0,0,0,2.9-13.8c-.9,5.7-4.4,13.4-4.4,13.4a15.1,15.1,0,0,1-3.6-6.1c-1.4-5.1,1-10.1,4.2-14.6s4.8-7.7,4.8-7.7l1.7,2.6a15.1,15.1,0,0,1,1.8,3.6l.2.3A20.4,20.4,0,0,1,250.4,261Z"/><path class="cls-8" d="M254.8,273.5h-.1a12.7,12.7,0,0,1-4.6,2.9,12.2,12.2,0,0,1-4.6.7C247.8,274.5,251.2,273.7,254.8,273.5Z"/><path class="cls-8" d="M263.8,273.3c-3.3,9-9.7,12.5-14.7,12.2a10.1,10.1,0,0,1-4.6-1.3l-1-.8,1-.2a27.5,27.5,0,0,0,9-4,38.8,38.8,0,0,1-9,2.7l-1.5.3a14.2,14.2,0,0,1,1.4-3.5,9.1,9.1,0,0,1,1.1-1.6h0c2.3-2.6,5.7-3.4,9.3-3.6h1.9C260.2,273.6,263.8,273.3,263.8,273.3Z"/><path class="cls-8" d="M260.6,257.5a34.8,34.8,0,0,1-.3,4.7c-.8,5.1-2.9,8.9-5.5,11.3-3.6.2-7,1-9.3,3.6h0a5.8,5.8,0,0,1-2.5-.5h.1a33,33,0,0,0,9-9,48,48,0,0,1-5.9,5.1c-2.3,1.7-4.3,2.9-4.3,2.9a13.8,13.8,0,0,1,.1-5.4c.9-.2,3.5-1.1,6.1-4.4a13.8,13.8,0,0,0,2.3-4.7l2-.9.6-.2,3.7-1.6,1.3-.6,2.6-1.3Z"/><path class="cls-9" d="M545.3,238v84h42a41.2,41.2,0,0,0,29.6-12.3l2.4-2.5c15-17.7,15.5-59.2-2.1-73.2,14.7,19.3,10.6,51.3-8.7,66.4-14.8,11.5-39.1,10.2-54.4,1.2,26.8-4.2,50.3-15.9,56.4-38.7-10.3,15.9-30.7,25.8-49.2,26.6-2.8-32.7,29.1-33.4,47-45.8a41.9,41.9,0,0,0-21.1-5.7Z"/><g class="cls-10"><rect class="cls-8" x="545.3" y="234" width="89.5" height="88.07"/></g><g class="cls-11"><path class="cls-9" d="M580.6,289.1c-10.6,4.1-33.3,11.1-35.3-4.3V322h42a41.2,41.2,0,0,0,29.6-12.3l2.4-2.5c15-17.7,15.5-59.2-2.1-73.2,14.7,19.3,10.6,51.3-8.7,66.4-14.8,11.5-39.1,10.2-54.4,1.2,26.8-4.2,50.3-15.9,56.4-38.7-5.6,14.3-19.1,22.1-29.9,26.2"/></g><path class="cls-7" d="M184.9,257.3l.3,5.5.2,5.4c.1,3.6.1,7.3.1,10.9s0,7.3-.1,10.9l-.2,5.5-.3,5.4h-.1V257.3Z"/><path class="cls-7" d="M124.7,248.7l2.3,4,2.1,4.1c1.4,2.7,2.8,5.5,4.1,8.3s2.7,5.5,4,8.3l1.9,4.2,1.9,4.2h-.1l-16.2-33.1Z"/><path class="cls-7" d="M353.4,258l.3,5.5.2,5.4c.1,3.6.1,7.3.1,10.9s0,7.3-.1,10.9l-.2,5.5-.3,5.4h-.1V258Z"/><path class="cls-7" d="M299.9,258c.2,1.8.2,3.6.3,5.4l.2,5.5c.1,3.6.1,7.3.2,10.9s-.1,7.3-.2,10.9l-.2,5.4c-.1,1.8-.1,3.7-.3,5.5h0V258Z"/><path class="cls-7" d="M395.3,258.3l.3,5.5.2,5.4c.1,3.7.1,7.3.1,10.9s0,7.3-.1,10.9l-.2,5.5-.3,5.4h-.1V258.3Z"/><polygon class="cls-7" points="425 269.9 425.1 272.3 425.2 274.6 425.3 279.4 425.2 284.1 425.1 286.5 425 288.8 425 288.8 425 269.9 425 269.9"/><polygon class="cls-7" points="441.8 298.3 441.9 300.6 441.9 303 442 307.7 441.9 312.4 441.9 314.8 441.8 317.2 441.8 317.2 441.8 298.3 441.8 298.3"/><polygon class="cls-7" points="440.2 241.4 440.3 243.8 440.3 246.1 440.4 250.9 440.3 255.6 440.3 257.9 440.2 260.3 440.2 260.3 440.2 241.4 440.2 241.4"/><path class="cls-7" d="M477.3,259c.2,1.8.2,3.7.3,5.5l.2,5.4c.1,3.6.1,7.3.2,10.9s-.1,7.3-.2,10.9l-.2,5.5c-.1,1.8-.1,3.6-.3,5.4h-.1V259Z"/><path class="cls-7" d="M508,285.4c.7,1,1.3,2,2,2.9l1.8,3c1.1,2,2.2,4.1,3.4,6.1l3.1,6.2,1.5,3.2a30.9,30.9,0,0,1,1.4,3.2h-.1l-6.6-12.2L508,285.4Z"/><path class="cls-7" d="M240.4,286.3l.3,2.9.2,3c.1,1.9.1,3.9.1,5.8s0,3.9-.1,5.9l-.2,2.9-.3,3h-.1V286.3Z"/><path class="cls-7" d="M514.4,244.1a17.8,17.8,0,0,1,3.6,1.4,9.1,9.1,0,0,1,1.6,1.1l1.5,1.2a16.7,16.7,0,0,1,4.1,6.9,19.2,19.2,0,0,1,0,7.8c-.1.7-.4,1.3-.5,1.9l-.6,1.8a38.4,38.4,0,0,1-1.8,3.5h-.1l1.4-3.5c.2-1.2.6-2.5.8-3.7a19,19,0,0,0-.2-7.5,14.9,14.9,0,0,0-3.6-6.5,17.1,17.1,0,0,0-6.2-4.2Z"/><path class="cls-7" d="M626.1,286.6a29.2,29.2,0,0,1-.9,5,45.2,45.2,0,0,1-1.8,4.7,41.7,41.7,0,0,1-5.3,8.5,39.6,39.6,0,0,1-7.4,6.8,38.7,38.7,0,0,1-4.3,2.7l-2.3,1-2.3,1h0l2.2-1.1a14.8,14.8,0,0,0,2.1-1.3,37.1,37.1,0,0,0,4.1-2.8,38.1,38.1,0,0,0,7.1-6.8,42.3,42.3,0,0,0,5.4-8.3,33.2,33.2,0,0,0,3.3-9.3Z"/></svg>